# xmcd
#
# Track frame offsets: 
#        150
#        21890
#        42690
#        61356
#        85927
#        106653
#        126394
#        143044
#        160286
#        171305
#        189270
#
# Disc length: 2692 seconds
#
# Revision: 1
# Processed by: cddbd v1.5.2PL0 Copyright (c) Steve Scherf et al.
# Submitted via: ExactAudioCopyFreeDBPlugin 1.0
#
DISCID=950a820b
DTITLE=Bald Girl - Chan Ka Lu - Valentine Beyond
DYEAR=2005
DGENRE=Blues
TTITLE0=Boundless Sky
TTITLE1=Amani
TTITLE2=For You And For Me
TTITLE3=Missing Home
TTITLE4=Love You Truly
TTITLE5=Valentine
TTITLE6=Goodbye My Dream
TTITLE7=Good Fellows
TTITLE8=Gone Youth
TTITLE9=Things We Used To Have
TTITLE10=The Party
EXTD=
EXTT0=
EXTT1=
EXTT2=
EXTT3=
EXTT4=
EXTT5=
EXTT6=
EXTT7=
EXTT8=
EXTT9=
EXTT10=
PLAYORDER=
